{"title":"The Knick Season1","uid":11243686,"size":3050346451,"categoryP":"video","categoryS":"tv_shows","magnet":"?xt=urn:btih:cc0a6970c85c0f54d75c059b2b0d90708fec5d30&amp;dn=The+Knick+Season1&amp;tr=udp%3A%2F%2Ftracker.openbittorrent.com%3A80&amp;tr=udp%3A%2F%2Fopen.demonii.com%3A1337&amp;tr=udp%3A%2F%2Ftracker.coppersurfer.tk%3A6969&amp;tr=udp%3A%2F%2Fexodus.desync.com%3A6969","seeders":7,"leechers":1,"uploader":"toots2boots","files":11,"time":1413700916,"description":"The Knick looks at the professional and personal lives of Dr. John W. Thackery (played by Owen) and the staff at New York's Knickerbocker Hospital during the early part of the twentieth century. New York City in 1900, the Knickerbocker Hospital operates with innovative surgeons, nurses and staff who have medicinal limitations to prevent staggeringly high mortality rates. Dr. John Thackery, the newly appointed leader of the surgery staff, battles his cocaine and opium addictions with his ambition for medical discovery and reputation among his peers. Harvard graduate Dr. Algernon Edwards must fight for respect within the all-white-populated hospital, as well as the racially charged city. While literally struggling to keep the lights on, the hospital attempts to attract a wealthy clientele, without sacrificing quality care.\nGeneral\nComplete name                            : G:Torrent uploadThe Knick Season 1The Knick-S01E01The.Knick.S01E01.HDTV.x264-KILLERS.mp4\nFormat                                   : MPEG-4\nFormat profile                           : Base Media\nCodec ID                                 : isom\nFile size                                : 328 MiB\nDuration                                 : 55mn 23s\nOverall bit rate mode                    : Variable\nOverall bit rate                         : 828 Kbps\nEncoded date                             : UTC 2014-08-09 03:55:53\nTagged date                              : UTC 2014-08-09 03:55:53\n\nVideo\nID                                       : 2\nFormat                                   : AVC\nFormat/Info                              : Advanced Video Codec\nFormat profile                           : &lt;a class=&quot;__cf_email__&quot; href=&quot;/cdn-cgi/l/email-protection&quot; data-cfemail=&quot;2068494748606c130e11&quot;&gt;[email&amp;#160;protected]&lt;/a&gt;&lt;script cf-hash='f9e31' type=&quot;text/javascript&quot;&gt;\n/* &lt;![CDATA[ */!function(){try{var t=&quot;currentScript&quot;in document?document.currentScript:function(){for(var t=document.getElementsByTagName(&quot;script&quot;),e=t.length;e--;)if(t[e].getAttribute(&quot;cf-hash&quot;))return t[e]}();if(t&amp;&amp;t.previousSibling){var e,r,n,i,c=t.previousSibling,a=c.getAttribute(&quot;data-cfemail&quot;);if(a){for(e=&quot;&quot;,r=parseInt(a.substr(0,2),16),n=2;a.length-n;n+=2)i=parseInt(a.substr(n,2),16)^r,e+=String.fromCharCode(i);e=document.createTextNode(e),c.parentNode.replaceChild(e,c)}}}catch(u){}}();/* ]]&gt; */&lt;/script&gt;\nFormat settings, CABAC                   : Yes\nFormat settings, ReFrames                : 5 frames\nCodec ID                                 : avc1\nCodec ID/Info                            : Advanced Video Coding\nDuration                                 : 55mn 23s\nSource duration                          : 55mn 23s\nBit rate                                 : 697 Kbps\nMaximum bit rate                         : 2 437 Kbps\nWidth                                    : 720 pixels\nHeight                                   : 404 pixels\nDisplay aspect ratio                     : 16:9\nFrame rate mode                          : Constant\nFrame rate                               : 23.976 fps\nColor space                              : YUV\nChroma subsampling                       : 4:2:0\nBit depth                                : 8 bits\nScan type                                : Progressive\nBits/(Pixel*Frame)                       : 0.100\nStream size                              : 276 MiB (84%)\nSource stream size                       : 276 MiB (84%)\nWriting library                          : x264 core 142 r2453 ea0ca51\nEncoding settings                        : cabac=1 / ref=5 / deblock=1:0:0 / analyse=0x3:0x113 / me=umh / subme=8 / psy=1 / psy_rd=1.00:0.00 / mixed_ref=1 / me_range=16 / chroma_me=1 / trellis=1 / 8x8dct=1 / cqm=0 / deadzone=21,11 / fast_pskip=1 / chroma_qp_offset=-2 / threads=18 / lookahead_threads=3 / sliced_threads=0 / nr=0 / decimate=1 / interlaced=0 / bluray_compat=0 / constrained_intra=0 / bframes=3 / b_pyramid=2 / b_adapt=2 / b_bias=0 / direct=3 / weightb=1 / open_gop=0 / weightp=2 / keyint=250 / keyint_min=23 / scenecut=40 / intra_refresh=0 / rc_lookahead=50 / rc=crf / mbtree=1 / crf=19.0 / qcomp=0.60 / qpmin=0 / qpmax=69 / qpstep=4 / ip_ratio=1.40 / aq=1:1.00\nEncoded date                             : UTC 2014-08-09 03:44:30\nTagged date                              : UTC 2014-08-09 03:55:54\nMatrix coefficients                      : BT.709\n\nAudio\nID                                       : 1\nFormat                                   : AAC\nFormat/Info                              : Advanced Audio Codec\nFormat profile                           : LC\nCodec ID                                 : 40\nDuration                                 : 55mn 23s\nBit rate mode                            : Variable\nBit rate                                 : 127 Kbps\nMaximum bit rate                         : 177 Kbps\nChannel(s)                               : 2 channels\nChannel positions                        : Front: L R\nSampling rate                            : 48.0 KHz\nCompression mode                         : Lossy\nStream size                              : 50.4 MiB (15%)\nEncoded date                             : UTC 2014-08-09 03:55:53\nTagged date                              : UTC 2014-08-09 03:55:54","torrent":{"xt":"urn:btih:cc0a6970c85c0f54d75c059b2b0d90708fec5d30","amp;dn":"The+Knick+Season1","amp;tr":["udp%3A%2F%2Ftracker.openbittorrent.com%3A80","udp%3A%2F%2Fopen.demonii.com%3A1337","udp%3A%2F%2Ftracker.coppersurfer.tk%3A6969","udp%3A%2F%2Fexodus.desync.com%3A6969"],"infoHash":"cc0a6970c85c0f54d75c059b2b0d90708fec5d30","infoHashBuffer":{"type":"Buffer","data":[204,10,105,112,200,92,15,84,215,92,5,155,43,13,144,112,143,236,93,48]},"announce":[],"urlList":[]}}